<svg width="2114" height="451" viewBox="0 0 2114 451" fill="none" xmlns="http://www.w3.org/2000/svg">
<path d="M115.219 109.68H92.1789C91.9389 125.04 91.6989 140.4 91.4589 155.76C91.4589 171.12 91.4589 186.48 91.4589 201.84H112.339C131.059 201.84 144.379 197.28 152.299 188.16C160.459 179.04 164.539 167.88 164.539 154.68C164.539 124.68 148.099 109.68 115.219 109.68ZM14.4189 108.24V91.32H122.779C150.859 91.32 172.459 96.72 187.579 107.52C202.939 118.32 210.619 133.32 210.619 152.52C210.619 161.16 208.459 169.56 204.139 177.72C200.059 185.88 193.459 192.96 184.339 198.96C175.219 204.96 163.219 209.16 148.339 211.56C163.459 213.96 174.619 219.24 181.819 227.4C189.259 235.56 194.659 247.44 198.019 263.04L209.179 310.2L236.899 313.08V330C230.899 331.68 225.619 332.76 221.059 333.24C216.739 333.96 211.099 334.32 204.139 334.32C190.939 334.32 180.619 332.16 173.179 327.84C165.979 323.52 161.419 315.84 159.499 304.8L149.059 254.76C146.419 241.32 141.859 232.2 135.379 227.4C129.139 222.36 119.659 219.84 106.939 219.84H91.4589C91.4589 235.92 91.4589 251.4 91.4589 266.28C91.6989 280.92 91.9389 295.44 92.1789 309.84L122.779 313.08V330H14.4189V313.08L44.6589 309.84C45.1389 294.96 45.3789 279.84 45.3789 264.48C45.3789 249.12 45.3789 233.76 45.3789 218.4V202.92C45.3789 187.8 45.3789 172.68 45.3789 157.56C45.3789 142.2 45.1389 126.84 44.6589 111.48L14.4189 108.24ZM388.138 334.32C378.538 334.32 370.738 331.92 364.738 327.12C358.738 322.32 354.658 315.72 352.498 307.32C343.618 316.44 335.578 323.4 328.378 328.2C321.178 332.76 311.818 335.04 300.298 335.04C286.858 335.04 275.458 331.2 266.098 323.52C256.978 315.6 252.418 304.32 252.418 289.68C252.418 282 254.218 274.92 257.818 268.44C261.418 261.72 267.778 255.48 276.898 249.72C286.258 243.96 299.578 238.32 316.858 232.8C321.658 231.12 327.058 229.44 333.058 227.76C339.058 226.08 345.178 224.4 351.418 222.72V212.64C351.418 195.84 349.018 184.56 344.218 178.8C339.658 172.8 331.498 169.8 319.738 169.8C317.578 169.8 315.178 169.92 312.538 170.16C310.138 170.4 307.618 170.76 304.978 171.24L300.658 191.04C299.698 199.68 297.178 206.04 293.098 210.12C289.018 214.2 283.978 216.24 277.978 216.24C266.458 216.24 259.738 210.84 257.818 200.04C259.978 185.64 267.658 174.12 280.858 165.48C294.298 156.84 311.938 152.52 333.778 152.52C354.658 152.52 369.898 157.56 379.498 167.64C389.098 177.48 393.898 194.16 393.898 217.68V296.16C393.898 306.96 397.378 312.36 404.338 312.36C408.898 312.36 413.098 309.72 416.938 304.44L425.218 311.64C420.898 319.8 415.738 325.68 409.738 329.28C403.978 332.64 396.778 334.32 388.138 334.32ZM294.538 282.12C294.538 291.48 296.938 298.32 301.738 302.64C306.778 306.72 312.898 308.76 320.098 308.76C324.178 308.76 328.258 307.8 332.338 305.88C336.418 303.96 342.778 300 351.418 294V237.12C346.378 238.8 341.578 240.36 337.018 241.8C332.698 243.24 328.978 244.56 325.858 245.76C313.858 250.56 305.578 256.08 301.018 262.32C296.698 268.56 294.538 275.16 294.538 282.12ZM436.955 330V315.24L460.355 310.56C460.595 301.68 460.715 292.08 460.715 281.76C460.715 271.2 460.715 262.08 460.715 254.4V235.32C460.715 225.48 460.595 217.68 460.355 211.92C460.355 205.92 460.115 199.32 459.635 192.12L434.435 188.88V175.2L494.555 152.52L500.315 156.12L502.835 183.84C521.315 162.96 541.715 152.52 564.035 152.52C579.635 152.52 591.635 157.68 600.035 168C608.675 178.32 612.995 194.64 612.995 216.96V254.4C612.995 262.56 612.995 271.8 612.995 282.12C612.995 292.44 613.115 302.04 613.355 310.92L635.315 315.24V330H546.395V315.24L569.435 310.56C569.675 301.68 569.795 292.2 569.795 282.12C569.795 271.8 569.795 262.56 569.795 254.4V220.2C569.795 206.04 567.875 196.32 564.035 191.04C560.195 185.52 553.715 182.76 544.595 182.76C531.875 182.76 518.435 188.64 504.275 200.4V254.4C504.275 262.32 504.275 271.44 504.275 281.76C504.275 292.08 504.395 301.8 504.635 310.92L525.875 315.24V330H436.955ZM731.553 253.68C741.633 253.68 749.313 249.72 754.593 241.8C759.873 233.88 762.513 223.32 762.513 210.12C762.513 197.4 759.873 187.32 754.593 179.88C749.553 172.2 742.233 168.36 732.633 168.36C723.033 168.36 715.473 172.32 709.953 180.24C704.673 187.92 702.033 198.24 702.033 211.2C702.033 224.16 704.553 234.48 709.593 242.16C714.633 249.84 721.953 253.68 731.553 253.68ZM686.193 363.48C686.193 374.52 690.273 382.56 698.433 387.6C706.593 392.64 718.233 395.16 733.353 395.16C752.313 395.16 766.593 392.04 776.193 385.8C786.033 379.56 790.953 372 790.953 363.12C790.953 356.4 788.553 350.64 783.753 345.84C779.193 341.04 771.153 338.64 759.633 338.64H719.673C710.793 338.64 702.873 337.92 695.913 336.48C689.433 345.12 686.193 354.12 686.193 363.48ZM732.273 269.52C721.473 269.52 711.513 268.2 702.393 265.56C697.833 271.8 695.553 278.4 695.553 285.36C695.553 289.92 696.993 293.52 699.873 296.16C702.993 298.8 708.513 300.12 716.433 300.12H761.433C784.953 300.12 801.753 304.56 811.833 313.44C821.913 322.32 826.953 334.32 826.953 349.44C826.953 360.72 823.233 371.28 815.793 381.12C808.593 390.96 797.793 398.88 783.393 404.88C769.233 410.88 751.473 413.88 730.113 413.88C711.633 413.88 696.753 411.96 685.473 408.12C674.433 404.28 666.393 399.12 661.353 392.64C656.553 386.16 654.153 378.96 654.153 371.04C654.153 363.36 656.673 356.28 661.713 349.8C666.753 343.56 675.033 337.68 686.553 332.16C679.113 329.52 673.593 325.8 669.993 321C666.393 315.96 664.593 310.2 664.593 303.72C664.593 296.76 666.633 289.92 670.713 283.2C675.033 276.24 681.633 268.68 690.513 260.52C671.553 250.92 662.073 234.48 662.073 211.2C662.073 193.44 668.313 179.28 680.793 168.72C693.273 157.92 710.433 152.52 732.273 152.52C754.113 152.52 771.153 157.56 783.393 167.64L824.073 152.16L829.473 155.76V180.96H794.553C799.593 189.12 802.113 199.2 802.113 211.2C802.113 228.72 795.993 242.88 783.753 253.68C771.513 264.24 754.353 269.52 732.273 269.52ZM929.05 169.8C923.29 169.8 917.53 171.72 911.77 175.56C906.25 179.16 901.45 185.16 897.37 193.56C893.53 201.96 891.13 213.36 890.17 227.76H939.49C948.13 227.76 953.89 225.96 956.77 222.36C959.65 218.76 961.09 213.72 961.09 207.24C961.09 196.2 957.97 187.2 951.73 180.24C945.49 173.28 937.93 169.8 929.05 169.8ZM929.05 335.04C912.25 335.04 897.49 331.44 884.77 324.24C872.05 317.04 862.09 306.72 854.89 293.28C847.69 279.6 844.09 263.4 844.09 244.68C844.09 225.48 848.17 209.04 856.33 195.36C864.73 181.44 875.53 170.88 888.73 163.68C902.17 156.24 916.45 152.52 931.57 152.52C945.73 152.52 958.09 155.52 968.65 161.52C979.21 167.52 987.37 175.92 993.13 186.72C999.13 197.52 1002.13 210.24 1002.13 224.88C1002.13 232.56 1001.41 239.16 999.97 244.68H889.81C890.77 265.32 896.17 280.8 906.01 291.12C916.09 301.44 928.69 306.6 943.81 306.6C954.37 306.6 963.25 304.56 970.45 300.48C977.89 296.16 984.61 290.64 990.61 283.92L1001.05 293.28C994.09 306.48 984.49 316.8 972.25 324.24C960.25 331.44 945.85 335.04 929.05 335.04ZM1101.76 336.12C1088.32 336.12 1075 334.44 1061.8 331.08C1048.6 327.72 1037.32 323.04 1027.96 317.04L1030.12 265.2H1057.84L1065.04 308.76C1070.56 311.16 1076.2 313.08 1081.96 314.52C1087.72 315.72 1094.2 316.32 1101.4 316.32C1116.28 316.32 1127.92 312.84 1136.32 305.88C1144.96 298.68 1149.28 289.2 1149.28 277.44C1149.28 266.88 1146.28 258.6 1140.28 252.6C1134.28 246.6 1124.68 240.96 1111.48 235.68L1096.72 229.56C1077.04 221.16 1061.32 211.08 1049.56 199.32C1038.04 187.56 1032.28 172.2 1032.28 153.24C1032.28 139.08 1035.88 126.96 1043.08 116.88C1050.28 106.56 1060.24 98.76 1072.96 93.48C1085.92 87.96 1100.8 85.2 1117.6 85.2C1130.08 85.2 1141.72 86.88 1152.52 90.24C1163.32 93.6 1172.8 98.16 1180.96 103.92L1178.44 152.52H1151.08L1143.88 110.76C1135.48 106.92 1126.48 105 1116.88 105C1104.88 105 1094.68 108.24 1086.28 114.72C1077.88 120.96 1073.68 129.96 1073.68 141.72C1073.68 152.04 1076.92 160.44 1083.4 166.92C1089.88 173.4 1099 179.04 1110.76 183.84L1126.24 190.32C1149.76 200.16 1166.44 210.72 1176.28 222C1186.36 233.28 1191.4 247.8 1191.4 265.56C1191.4 286.68 1183.36 303.72 1167.28 316.68C1151.44 329.64 1129.6 336.12 1101.76 336.12ZM1302.41 169.8C1296.65 169.8 1290.89 171.72 1285.13 175.56C1279.61 179.16 1274.81 185.16 1270.73 193.56C1266.89 201.96 1264.49 213.36 1263.53 227.76H1312.85C1321.49 227.76 1327.25 225.96 1330.13 222.36C1333.01 218.76 1334.45 213.72 1334.45 207.24C1334.45 196.2 1331.33 187.2 1325.09 180.24C1318.85 173.28 1311.29 169.8 1302.41 169.8ZM1302.41 335.04C1285.61 335.04 1270.85 331.44 1258.13 324.24C1245.41 317.04 1235.45 306.72 1228.25 293.28C1221.05 279.6 1217.45 263.4 1217.45 244.68C1217.45 225.48 1221.53 209.04 1229.69 195.36C1238.09 181.44 1248.89 170.88 1262.09 163.68C1275.53 156.24 1289.81 152.52 1304.93 152.52C1319.09 152.52 1331.45 155.52 1342.01 161.52C1352.57 167.52 1360.73 175.92 1366.49 186.72C1372.49 197.52 1375.49 210.24 1375.49 224.88C1375.49 232.56 1374.77 239.16 1373.33 244.68H1263.17C1264.13 265.32 1269.53 280.8 1279.37 291.12C1289.45 301.44 1302.05 306.6 1317.17 306.6C1327.73 306.6 1336.61 304.56 1343.81 300.48C1351.25 296.16 1357.97 290.64 1363.97 283.92L1374.41 293.28C1367.45 306.48 1357.85 316.8 1345.61 324.24C1333.61 331.44 1319.21 335.04 1302.41 335.04ZM1487.68 169.8C1481.92 169.8 1476.16 171.72 1470.4 175.56C1464.88 179.16 1460.08 185.16 1456 193.56C1452.16 201.96 1449.76 213.36 1448.8 227.76H1498.12C1506.76 227.76 1512.52 225.96 1515.4 222.36C1518.28 218.76 1519.72 213.72 1519.72 207.24C1519.72 196.2 1516.6 187.2 1510.36 180.24C1504.12 173.28 1496.56 169.8 1487.68 169.8ZM1487.68 335.04C1470.88 335.04 1456.12 331.44 1443.4 324.24C1430.68 317.04 1420.72 306.72 1413.52 293.28C1406.32 279.6 1402.72 263.4 1402.72 244.68C1402.72 225.48 1406.8 209.04 1414.96 195.36C1423.36 181.44 1434.16 170.88 1447.36 163.68C1460.8 156.24 1475.08 152.52 1490.2 152.52C1504.36 152.52 1516.72 155.52 1527.28 161.52C1537.84 167.52 1546 175.92 1551.76 186.72C1557.76 197.52 1560.76 210.24 1560.76 224.88C1560.76 232.56 1560.04 239.16 1558.6 244.68H1448.44C1449.4 265.32 1454.8 280.8 1464.64 291.12C1474.72 301.44 1487.32 306.6 1502.44 306.6C1513 306.6 1521.88 304.56 1529.08 300.48C1536.52 296.16 1543.24 290.64 1549.24 283.92L1559.68 293.28C1552.72 306.48 1543.12 316.8 1530.88 324.24C1518.88 331.44 1504.48 335.04 1487.68 335.04ZM1579.11 330V315.24L1603.59 310.56C1603.83 301.44 1603.95 291.84 1603.95 281.76C1604.19 271.68 1604.31 262.56 1604.31 254.4V99.96L1578.03 96.36V82.32L1643.55 66.12L1648.95 69.36L1647.51 120.12V238.56L1707.27 178.08L1680.27 172.68L1680.63 157.56H1765.59V172.68L1732.83 177.36L1696.47 212.64L1751.91 310.2L1775.31 315.24V330H1714.47L1666.23 242.16L1647.51 260.52C1647.51 268.68 1647.51 277.2 1647.51 286.08C1647.75 294.72 1647.99 303 1648.23 310.92L1672.35 315.24V330H1579.11ZM1867.02 169.8C1861.26 169.8 1855.5 171.72 1849.74 175.56C1844.22 179.16 1839.42 185.16 1835.34 193.56C1831.5 201.96 1829.1 213.36 1828.14 227.76H1877.46C1886.1 227.76 1891.86 225.96 1894.74 222.36C1897.62 218.76 1899.06 213.72 1899.06 207.24C1899.06 196.2 1895.94 187.2 1889.7 180.24C1883.46 173.28 1875.9 169.8 1867.02 169.8ZM1867.02 335.04C1850.22 335.04 1835.46 331.44 1822.74 324.24C1810.02 317.04 1800.06 306.72 1792.86 293.28C1785.66 279.6 1782.06 263.4 1782.06 244.68C1782.06 225.48 1786.14 209.04 1794.3 195.36C1802.7 181.44 1813.5 170.88 1826.7 163.68C1840.14 156.24 1854.42 152.52 1869.54 152.52C1883.7 152.52 1896.06 155.52 1906.62 161.52C1917.18 167.52 1925.34 175.92 1931.1 186.72C1937.1 197.52 1940.1 210.24 1940.1 224.88C1940.1 232.56 1939.38 239.16 1937.94 244.68H1827.78C1828.74 265.32 1834.14 280.8 1843.98 291.12C1854.06 301.44 1866.66 306.6 1881.78 306.6C1892.34 306.6 1901.22 304.56 1908.42 300.48C1915.86 296.16 1922.58 290.64 1928.58 283.92L1939.02 293.28C1932.06 306.48 1922.46 316.8 1910.22 324.24C1898.22 331.44 1883.82 335.04 1867.02 335.04ZM1966.61 330V315.24L1989.65 310.92C1989.89 301.8 1990.01 292.08 1990.01 281.76C1990.01 271.2 1990.01 262.08 1990.01 254.4V235.32C1990.01 225.48 1989.89 217.68 1989.65 211.92C1989.65 205.92 1989.41 199.32 1988.93 192.12L1963.73 188.88V175.2L2023.85 152.52L2029.61 156.12L2033.21 198.6C2038.73 183.72 2046.17 172.32 2055.53 164.4C2064.89 156.48 2074.25 152.52 2083.61 152.52C2090.09 152.52 2095.97 154.2 2101.25 157.56C2106.77 160.92 2110.37 165.72 2112.05 171.96C2111.81 180.84 2109.65 187.8 2105.57 192.84C2101.49 197.64 2095.85 200.04 2088.65 200.04C2080.01 200.04 2071.85 195.72 2064.17 187.08L2060.93 183.48C2048.21 194.04 2039.09 208.92 2033.57 228.12V254.4C2033.57 261.84 2033.57 270.72 2033.57 281.04C2033.57 291.12 2033.69 300.6 2033.93 309.48L2063.45 315.24V330H1966.61Z" fill="url(#paint0_linear_59_53)"/>
<path d="M115.219 109.68H92.1789C91.9389 125.04 91.6989 140.4 91.4589 155.76C91.4589 171.12 91.4589 186.48 91.4589 201.84H112.339C131.059 201.84 144.379 197.28 152.299 188.16C160.459 179.04 164.539 167.88 164.539 154.68C164.539 124.68 148.099 109.68 115.219 109.68ZM14.4189 108.24V91.32H122.779C150.859 91.32 172.459 96.72 187.579 107.52C202.939 118.32 210.619 133.32 210.619 152.52C210.619 161.16 208.459 169.56 204.139 177.72C200.059 185.88 193.459 192.96 184.339 198.96C175.219 204.96 163.219 209.16 148.339 211.56C163.459 213.96 174.619 219.24 181.819 227.4C189.259 235.56 194.659 247.44 198.019 263.04L209.179 310.2L236.899 313.08V330C230.899 331.68 225.619 332.76 221.059 333.24C216.739 333.96 211.099 334.32 204.139 334.32C190.939 334.32 180.619 332.16 173.179 327.84C165.979 323.52 161.419 315.84 159.499 304.8L149.059 254.76C146.419 241.32 141.859 232.2 135.379 227.4C129.139 222.36 119.659 219.84 106.939 219.84H91.4589C91.4589 235.92 91.4589 251.4 91.4589 266.28C91.6989 280.92 91.9389 295.44 92.1789 309.84L122.779 313.08V330H14.4189V313.08L44.6589 309.84C45.1389 294.96 45.3789 279.84 45.3789 264.48C45.3789 249.12 45.3789 233.76 45.3789 218.4V202.92C45.3789 187.8 45.3789 172.68 45.3789 157.56C45.3789 142.2 45.1389 126.84 44.6589 111.48L14.4189 108.24ZM388.138 334.32C378.538 334.32 370.738 331.92 364.738 327.12C358.738 322.32 354.658 315.72 352.498 307.32C343.618 316.44 335.578 323.4 328.378 328.2C321.178 332.76 311.818 335.04 300.298 335.04C286.858 335.04 275.458 331.2 266.098 323.52C256.978 315.6 252.418 304.32 252.418 289.68C252.418 282 254.218 274.92 257.818 268.44C261.418 261.72 267.778 255.48 276.898 249.72C286.258 243.96 299.578 238.32 316.858 232.8C321.658 231.12 327.058 229.44 333.058 227.76C339.058 226.08 345.178 224.4 351.418 222.72V212.64C351.418 195.84 349.018 184.56 344.218 178.8C339.658 172.8 331.498 169.8 319.738 169.8C317.578 169.8 315.178 169.92 312.538 170.16C310.138 170.4 307.618 170.76 304.978 171.24L300.658 191.04C299.698 199.68 297.178 206.04 293.098 210.12C289.018 214.2 283.978 216.24 277.978 216.24C266.458 216.24 259.738 210.84 257.818 200.04C259.978 185.64 267.658 174.12 280.858 165.48C294.298 156.84 311.938 152.52 333.778 152.52C354.658 152.52 369.898 157.56 379.498 167.64C389.098 177.48 393.898 194.16 393.898 217.68V296.16C393.898 306.96 397.378 312.36 404.338 312.36C408.898 312.36 413.098 309.72 416.938 304.44L425.218 311.64C420.898 319.8 415.738 325.68 409.738 329.28C403.978 332.64 396.778 334.32 388.138 334.32ZM294.538 282.12C294.538 291.48 296.938 298.32 301.738 302.64C306.778 306.72 312.898 308.76 320.098 308.76C324.178 308.76 328.258 307.8 332.338 305.88C336.418 303.96 342.778 300 351.418 294V237.12C346.378 238.8 341.578 240.36 337.018 241.8C332.698 243.24 328.978 244.56 325.858 245.76C313.858 250.56 305.578 256.08 301.018 262.32C296.698 268.56 294.538 275.16 294.538 282.12ZM436.955 330V315.24L460.355 310.56C460.595 301.68 460.715 292.08 460.715 281.76C460.715 271.2 460.715 262.08 460.715 254.4V235.32C460.715 225.48 460.595 217.68 460.355 211.92C460.355 205.92 460.115 199.32 459.635 192.12L434.435 188.88V175.2L494.555 152.52L500.315 156.12L502.835 183.84C521.315 162.96 541.715 152.52 564.035 152.52C579.635 152.52 591.635 157.68 600.035 168C608.675 178.32 612.995 194.64 612.995 216.96V254.4C612.995 262.56 612.995 271.8 612.995 282.12C612.995 292.44 613.115 302.04 613.355 310.92L635.315 315.24V330H546.395V315.24L569.435 310.56C569.675 301.68 569.795 292.2 569.795 282.12C569.795 271.8 569.795 262.56 569.795 254.4V220.2C569.795 206.04 567.875 196.32 564.035 191.04C560.195 185.52 553.715 182.76 544.595 182.76C531.875 182.76 518.435 188.64 504.275 200.4V254.4C504.275 262.32 504.275 271.44 504.275 281.76C504.275 292.08 504.395 301.8 504.635 310.92L525.875 315.24V330H436.955ZM731.553 253.68C741.633 253.68 749.313 249.72 754.593 241.8C759.873 233.88 762.513 223.32 762.513 210.12C762.513 197.4 759.873 187.32 754.593 179.88C749.553 172.2 742.233 168.36 732.633 168.36C723.033 168.36 715.473 172.32 709.953 180.24C704.673 187.92 702.033 198.24 702.033 211.2C702.033 224.16 704.553 234.48 709.593 242.16C714.633 249.84 721.953 253.68 731.553 253.68ZM686.193 363.48C686.193 374.52 690.273 382.56 698.433 387.6C706.593 392.64 718.233 395.16 733.353 395.16C752.313 395.16 766.593 392.04 776.193 385.8C786.033 379.56 790.953 372 790.953 363.12C790.953 356.4 788.553 350.64 783.753 345.84C779.193 341.04 771.153 338.64 759.633 338.64H719.673C710.793 338.64 702.873 337.92 695.913 336.48C689.433 345.12 686.193 354.12 686.193 363.48ZM732.273 269.52C721.473 269.52 711.513 268.2 702.393 265.56C697.833 271.8 695.553 278.4 695.553 285.36C695.553 289.92 696.993 293.52 699.873 296.16C702.993 298.8 708.513 300.12 716.433 300.12H761.433C784.953 300.12 801.753 304.56 811.833 313.44C821.913 322.32 826.953 334.32 826.953 349.44C826.953 360.72 823.233 371.28 815.793 381.12C808.593 390.96 797.793 398.88 783.393 404.88C769.233 410.88 751.473 413.88 730.113 413.88C711.633 413.88 696.753 411.96 685.473 408.12C674.433 404.28 666.393 399.12 661.353 392.64C656.553 386.16 654.153 378.96 654.153 371.04C654.153 363.36 656.673 356.28 661.713 349.8C666.753 343.56 675.033 337.68 686.553 332.16C679.113 329.52 673.593 325.8 669.993 321C666.393 315.96 664.593 310.2 664.593 303.72C664.593 296.76 666.633 289.92 670.713 283.2C675.033 276.24 681.633 268.68 690.513 260.52C671.553 250.92 662.073 234.48 662.073 211.2C662.073 193.44 668.313 179.28 680.793 168.72C693.273 157.92 710.433 152.52 732.273 152.52C754.113 152.52 771.153 157.56 783.393 167.64L824.073 152.16L829.473 155.76V180.96H794.553C799.593 189.12 802.113 199.2 802.113 211.2C802.113 228.72 795.993 242.88 783.753 253.68C771.513 264.24 754.353 269.52 732.273 269.52ZM929.05 169.8C923.29 169.8 917.53 171.72 911.77 175.56C906.25 179.16 901.45 185.16 897.37 193.56C893.53 201.96 891.13 213.36 890.17 227.76H939.49C948.13 227.76 953.89 225.96 956.77 222.36C959.65 218.76 961.09 213.72 961.09 207.24C961.09 196.2 957.97 187.2 951.73 180.24C945.49 173.28 937.93 169.8 929.05 169.8ZM929.05 335.04C912.25 335.04 897.49 331.44 884.77 324.24C872.05 317.04 862.09 306.72 854.89 293.28C847.69 279.6 844.09 263.4 844.09 244.68C844.09 225.48 848.17 209.04 856.33 195.36C864.73 181.44 875.53 170.88 888.73 163.68C902.17 156.24 916.45 152.52 931.57 152.52C945.73 152.52 958.09 155.52 968.65 161.52C979.21 167.52 987.37 175.92 993.13 186.72C999.13 197.52 1002.13 210.24 1002.13 224.88C1002.13 232.56 1001.41 239.16 999.97 244.68H889.81C890.77 265.32 896.17 280.8 906.01 291.12C916.09 301.44 928.69 306.6 943.81 306.6C954.37 306.6 963.25 304.56 970.45 300.48C977.89 296.16 984.61 290.64 990.61 283.92L1001.05 293.28C994.09 306.48 984.49 316.8 972.25 324.24C960.25 331.44 945.85 335.04 929.05 335.04ZM1101.76 336.12C1088.32 336.12 1075 334.44 1061.8 331.08C1048.6 327.72 1037.32 323.04 1027.96 317.04L1030.12 265.2H1057.84L1065.04 308.76C1070.56 311.16 1076.2 313.08 1081.96 314.52C1087.72 315.72 1094.2 316.32 1101.4 316.32C1116.28 316.32 1127.92 312.84 1136.32 305.88C1144.96 298.68 1149.28 289.2 1149.28 277.44C1149.28 266.88 1146.28 258.6 1140.28 252.6C1134.28 246.6 1124.68 240.96 1111.48 235.68L1096.72 229.56C1077.04 221.16 1061.32 211.08 1049.56 199.32C1038.04 187.56 1032.28 172.2 1032.28 153.24C1032.28 139.08 1035.88 126.96 1043.08 116.88C1050.28 106.56 1060.24 98.76 1072.96 93.48C1085.92 87.96 1100.8 85.2 1117.6 85.2C1130.08 85.2 1141.72 86.88 1152.52 90.24C1163.32 93.6 1172.8 98.16 1180.96 103.92L1178.44 152.52H1151.08L1143.88 110.76C1135.48 106.92 1126.48 105 1116.88 105C1104.88 105 1094.68 108.24 1086.28 114.72C1077.88 120.96 1073.68 129.96 1073.68 141.72C1073.68 152.04 1076.92 160.44 1083.4 166.92C1089.88 173.4 1099 179.04 1110.76 183.84L1126.24 190.32C1149.76 200.16 1166.44 210.72 1176.28 222C1186.36 233.28 1191.4 247.8 1191.4 265.56C1191.4 286.68 1183.36 303.72 1167.28 316.68C1151.44 329.64 1129.6 336.12 1101.76 336.12ZM1302.41 169.8C1296.65 169.8 1290.89 171.72 1285.13 175.56C1279.61 179.16 1274.81 185.16 1270.73 193.56C1266.89 201.96 1264.49 213.36 1263.53 227.76H1312.85C1321.49 227.76 1327.25 225.96 1330.13 222.36C1333.01 218.76 1334.45 213.72 1334.45 207.24C1334.45 196.2 1331.33 187.2 1325.09 180.24C1318.85 173.28 1311.29 169.8 1302.41 169.8ZM1302.41 335.04C1285.61 335.04 1270.85 331.44 1258.13 324.24C1245.41 317.04 1235.45 306.72 1228.25 293.28C1221.05 279.6 1217.45 263.4 1217.45 244.68C1217.45 225.48 1221.53 209.04 1229.69 195.36C1238.09 181.44 1248.89 170.88 1262.09 163.68C1275.53 156.24 1289.81 152.52 1304.93 152.52C1319.09 152.52 1331.45 155.52 1342.01 161.52C1352.57 167.52 1360.73 175.92 1366.49 186.72C1372.49 197.52 1375.49 210.24 1375.49 224.88C1375.49 232.56 1374.77 239.16 1373.33 244.68H1263.17C1264.13 265.32 1269.53 280.8 1279.37 291.12C1289.45 301.44 1302.05 306.6 1317.17 306.6C1327.73 306.6 1336.61 304.56 1343.81 300.48C1351.25 296.16 1357.97 290.64 1363.97 283.92L1374.41 293.28C1367.45 306.48 1357.85 316.8 1345.61 324.24C1333.61 331.44 1319.21 335.04 1302.41 335.04ZM1487.68 169.8C1481.92 169.8 1476.16 171.72 1470.4 175.56C1464.88 179.16 1460.08 185.16 1456 193.56C1452.16 201.96 1449.76 213.36 1448.8 227.76H1498.12C1506.76 227.76 1512.52 225.96 1515.4 222.36C1518.28 218.76 1519.72 213.72 1519.72 207.24C1519.72 196.2 1516.6 187.2 1510.36 180.24C1504.12 173.28 1496.56 169.8 1487.68 169.8ZM1487.68 335.04C1470.88 335.04 1456.12 331.44 1443.4 324.24C1430.68 317.04 1420.72 306.72 1413.52 293.28C1406.32 279.6 1402.72 263.4 1402.72 244.68C1402.72 225.48 1406.8 209.04 1414.96 195.36C1423.36 181.44 1434.16 170.88 1447.36 163.68C1460.8 156.24 1475.08 152.52 1490.2 152.52C1504.36 152.52 1516.72 155.52 1527.28 161.52C1537.84 167.52 1546 175.92 1551.76 186.72C1557.76 197.52 1560.76 210.24 1560.76 224.88C1560.76 232.56 1560.04 239.16 1558.6 244.68H1448.44C1449.4 265.32 1454.8 280.8 1464.64 291.12C1474.72 301.44 1487.32 306.6 1502.44 306.6C1513 306.6 1521.88 304.56 1529.08 300.48C1536.52 296.16 1543.24 290.64 1549.24 283.92L1559.68 293.28C1552.72 306.48 1543.12 316.8 1530.88 324.24C1518.88 331.44 1504.48 335.04 1487.68 335.04ZM1579.11 330V315.24L1603.59 310.56C1603.83 301.44 1603.95 291.84 1603.95 281.76C1604.19 271.68 1604.31 262.56 1604.31 254.4V99.96L1578.03 96.36V82.32L1643.55 66.12L1648.95 69.36L1647.51 120.12V238.56L1707.27 178.08L1680.27 172.68L1680.63 157.56H1765.59V172.68L1732.83 177.36L1696.47 212.64L1751.91 310.2L1775.31 315.24V330H1714.47L1666.23 242.16L1647.51 260.52C1647.51 268.68 1647.51 277.2 1647.51 286.08C1647.75 294.72 1647.99 303 1648.23 310.92L1672.35 315.24V330H1579.11ZM1867.02 169.8C1861.26 169.8 1855.5 171.72 1849.74 175.56C1844.22 179.16 1839.42 185.16 1835.34 193.56C1831.5 201.96 1829.1 213.36 1828.14 227.76H1877.46C1886.1 227.76 1891.86 225.96 1894.74 222.36C1897.62 218.76 1899.06 213.72 1899.06 207.24C1899.06 196.2 1895.94 187.2 1889.7 180.24C1883.46 173.28 1875.9 169.8 1867.02 169.8ZM1867.02 335.04C1850.22 335.04 1835.46 331.44 1822.74 324.24C1810.02 317.04 1800.06 306.72 1792.86 293.28C1785.66 279.6 1782.06 263.4 1782.06 244.68C1782.06 225.48 1786.14 209.04 1794.3 195.36C1802.7 181.44 1813.5 170.88 1826.7 163.68C1840.14 156.24 1854.42 152.52 1869.54 152.52C1883.7 152.52 1896.06 155.52 1906.62 161.52C1917.18 167.52 1925.34 175.92 1931.1 186.72C1937.1 197.52 1940.1 210.24 1940.1 224.88C1940.1 232.56 1939.38 239.16 1937.94 244.68H1827.78C1828.74 265.32 1834.14 280.8 1843.98 291.12C1854.06 301.44 1866.66 306.6 1881.78 306.6C1892.34 306.6 1901.22 304.56 1908.42 300.48C1915.86 296.16 1922.58 290.64 1928.58 283.92L1939.02 293.28C1932.06 306.48 1922.46 316.8 1910.22 324.24C1898.22 331.44 1883.82 335.04 1867.02 335.04ZM1966.61 330V315.24L1989.65 310.92C1989.89 301.8 1990.01 292.08 1990.01 281.76C1990.01 271.2 1990.01 262.08 1990.01 254.4V235.32C1990.01 225.48 1989.89 217.68 1989.65 211.92C1989.65 205.92 1989.41 199.32 1988.93 192.12L1963.73 188.88V175.2L2023.85 152.52L2029.61 156.12L2033.21 198.6C2038.73 183.72 2046.17 172.32 2055.53 164.4C2064.89 156.48 2074.25 152.52 2083.61 152.52C2090.09 152.52 2095.97 154.2 2101.25 157.56C2106.77 160.92 2110.37 165.72 2112.05 171.96C2111.81 180.84 2109.65 187.8 2105.57 192.84C2101.49 197.64 2095.85 200.04 2088.65 200.04C2080.01 200.04 2071.85 195.72 2064.17 187.08L2060.93 183.48C2048.21 194.04 2039.09 208.92 2033.57 228.12V254.4C2033.57 261.84 2033.57 270.72 2033.57 281.04C2033.57 291.12 2033.69 300.6 2033.93 309.48L2063.45 315.24V330H1966.61Z" fill="white" fill-opacity="0.75"/>
<defs>
<linearGradient id="paint0_linear_59_53" x1="0" y1="225.5" x2="2114" y2="225.5" gradientUnits="userSpaceOnUse">
<stop stop-color="#BE41EC"/>
<stop offset="0.495192" stop-color="#2EE4E3"/>
<stop offset="1" stop-color="#12CE17"/>
</linearGradient>
</defs>
</svg>
